<svg width="228" height="29" viewBox="0 0 228 29" fill="none" xmlns="http://www.w3.org/2000/svg">
<path d="M19.9121 25.9258C20.4043 26.0078 20.7734 26.0488 21.0195 26.0488C21.2656 26.0488 21.5059 26.0254 21.7402 25.9785C21.9863 25.9199 22.2031 25.832 22.3906 25.7148C22.8125 25.457 23.0234 25.0527 23.0234 24.502C23.0234 24.0449 22.8828 23.5352 22.6016 22.9727L20.9492 18.877H9.82227L7.85352 23.8691C7.66602 24.3262 7.57227 24.6602 7.57227 24.8711C7.57227 25.0703 7.60156 25.2227 7.66016 25.3281C7.73047 25.4219 7.83008 25.5039 7.95898 25.5742C8.09961 25.6445 8.26953 25.7031 8.46875 25.75L9.18945 25.9434C9.96289 26.0723 10.4609 26.1895 10.6836 26.2949C11.1406 26.5176 11.3691 26.8457 11.3691 27.2793C11.3691 27.5957 11.2812 27.8652 11.1055 28.0879C10.8828 28.0293 10.6777 28 10.4902 28H3.33594C1.77734 28 0.998047 27.5723 0.998047 26.7168C0.998047 26.3184 1.08594 25.9961 1.26172 25.75C1.69531 25.8672 2.05859 25.9258 2.35156 25.9258C2.65625 25.9258 2.9082 25.8789 3.10742 25.7852C3.31836 25.6914 3.51758 25.5332 3.70508 25.3105C4.02148 24.9238 4.39062 24.1504 4.8125 22.9902L13.4961 1.9668C13.7422 1.4043 14.4395 1.01758 15.5879 0.806641C15.9043 0.748047 16.2383 0.71875 16.5898 0.71875C17.3047 0.71875 17.7441 0.912109 17.9082 1.29883L19.666 5.69336C23.0527 13.6855 25.0098 18.3496 25.5371 19.6855L27.1191 23.834C27.4355 24.7363 27.6992 25.293 27.9102 25.5039C28.1211 25.7148 28.3496 25.8613 28.5957 25.9434C28.8418 26.0254 29.0938 26.0957 29.3516 26.1543C29.6211 26.2012 29.8555 26.2656 30.0547 26.3477C30.5 26.5469 30.7227 26.8516 30.7227 27.2617C30.7227 27.5781 30.6348 27.8477 30.459 28.0703C30.2363 28.0117 30.0371 27.9824 29.8613 27.9824H21.4766C20.8789 27.9824 20.4102 27.9121 20.0703 27.7715C19.7422 27.6191 19.5781 27.3906 19.5781 27.0859C19.5781 26.5586 19.6895 26.1719 19.9121 25.9258ZM19.9297 16.3809L15.3242 4.99023L10.8066 16.3809H19.9297ZM57.582 3.30273C57.3359 3.18555 56.9961 3.12695 56.5625 3.12695C56.1289 3.12695 55.8008 3.2207 55.5781 3.4082C55.3672 3.58398 55.168 3.83594 54.9805 4.16406C54.793 4.49219 54.6113 4.88477 54.4355 5.3418L47.1758 25.0469C46.3906 27.2383 45.084 28.334 43.2559 28.334C42.6816 28.334 42.3301 28.1699 42.2012 27.8418L33.5352 5.78125C33.4414 5.54688 33.3535 5.29492 33.2715 5.02539C33.1895 4.74414 33.0957 4.47461 32.9902 4.2168C32.7324 3.61914 32.375 3.25 31.918 3.10938C31.6484 3.01563 31.4082 2.93945 31.1973 2.88086C30.998 2.81055 30.834 2.73438 30.7051 2.65234C30.4355 2.47656 30.3008 2.25391 30.3008 1.98438C30.3008 1.5625 30.3945 1.20508 30.582 0.912109C30.8516 1.00586 31.3145 1.05273 31.9707 1.05273H39.248C40.0332 1.05273 40.5664 1.10547 40.8477 1.21094C41.3867 1.42188 41.6562 1.82031 41.6562 2.40625C41.6562 2.80469 41.5684 3.10352 41.3926 3.30273C41.1348 3.18555 40.625 3.12695 39.8633 3.12695C38.4805 3.12695 37.7891 3.70117 37.7891 4.84961C37.7891 4.99023 37.8301 5.19531 37.9121 5.46484L38.123 6.08008C38.1816 6.23242 38.2344 6.36719 38.2812 6.48438L44.5918 23.8516L51.1133 5.20117C51.1836 4.94336 51.2188 4.71484 51.2188 4.51562C51.2188 4.30469 51.1719 4.12891 51.0781 3.98828C50.9844 3.83594 50.8613 3.70703 50.709 3.60156C50.5449 3.48437 50.252 3.38477 49.8301 3.30273C49.4082 3.20898 49.0566 3.12695 48.7754 3.05664C48.5059 2.98633 48.2773 2.89844 48.0898 2.79297C47.7148 2.58203 47.5156 2.23047 47.4922 1.73828C47.4922 1.41016 47.5508 1.13477 47.668 0.912109C47.9375 1.00586 48.5176 1.05273 49.4082 1.05273H55.5078C57.0781 1.05273 57.8633 1.50391 57.8633 2.40625C57.8633 2.79297 57.7695 3.0918 57.582 3.30273ZM63.207 24.8711C62.0938 23.7578 61.2207 22.416 60.5879 20.8457C59.9668 19.2637 59.6562 17.5938 59.6562 15.8359C59.6562 14.0664 59.832 12.5078 60.1836 11.1602C60.5352 9.8125 61.0215 8.59375 61.6426 7.50391C62.2637 6.40234 63.002 5.42969 63.8574 4.58594C64.7129 3.74219 65.6445 3.0332 66.6523 2.45898C68.6914 1.29883 70.9004 0.71875 73.2793 0.71875C76.8887 0.71875 79.8301 1.86719 82.1035 4.16406C84.4824 6.55469 85.6719 9.70117 85.6719 13.6035C85.6719 16.5449 85.0098 19.1875 83.6855 21.5312C82.4785 23.6641 80.8145 25.3398 78.6934 26.5586C76.6543 27.7422 74.5977 28.334 72.5234 28.334C70.4609 28.334 68.668 28.0352 67.1445 27.4375C65.6328 26.8281 64.3203 25.9727 63.207 24.8711ZM66.1602 6.48438C65.4688 7.45703 64.959 8.63477 64.6309 10.0176C64.3027 11.4004 64.1387 12.8887 64.1387 14.4824C64.1387 16.0645 64.291 17.5176 64.5957 18.8418C64.9004 20.1543 65.3867 21.3086 66.0547 22.3047C67.5078 24.4727 69.6641 25.5566 72.5234 25.5566C75.4062 25.5566 77.5918 24.6133 79.0801 22.7266C80.5098 20.8867 81.2246 18.2676 81.2246 14.8691C81.2246 9.6543 79.6777 6.15625 76.584 4.375C75.4824 3.75391 74.1758 3.44336 72.6641 3.44336C71.1523 3.44336 69.8633 3.70703 68.7969 4.23438C67.7305 4.76172 66.8516 5.51172 66.1602 6.48438ZM100.473 28.1406C100.203 28.0469 99.623 28 98.7324 28H91.4023C90.793 28 90.3066 27.9062 89.9434 27.7188C89.5801 27.5195 89.3984 27.1621 89.3984 26.6465C89.3984 26.2715 89.4863 25.9727 89.6621 25.75C90.1309 25.8672 90.5586 25.9258 90.9453 25.9258C91.3438 25.9258 91.6543 25.8848 91.877 25.8027C92.1113 25.7207 92.3105 25.5742 92.4746 25.3633C92.8379 24.918 93.0312 24.1855 93.0547 23.166V5.20117C93.0547 4.27539 92.7969 3.69531 92.2812 3.46094C92.1172 3.37891 91.8945 3.30859 91.6133 3.25C91.332 3.19141 91.0508 3.13281 90.7695 3.07422C90.5 3.00391 90.2715 2.92187 90.084 2.82812C89.709 2.64062 89.5215 2.32422 89.5215 1.87891C89.5215 1.44531 89.6094 1.12305 89.7852 0.912109C90.0547 1.00586 90.6348 1.05273 91.5254 1.05273H98.6797C99.2891 1.05273 99.7754 1.15234 100.139 1.35156C100.514 1.53906 100.701 1.89063 100.701 2.40625C100.701 2.79297 100.607 3.0918 100.42 3.30273C99.9746 3.18555 99.4883 3.12695 98.9609 3.12695C97.8242 3.12695 97.2383 4.05273 97.2031 5.9043V23.8516C97.2031 24.7773 97.4609 25.3633 97.9766 25.6094C98.1406 25.6797 98.3633 25.7441 98.6445 25.8027C98.9258 25.8613 99.2012 25.9258 99.4707 25.9961C99.752 26.0547 99.9863 26.1309 100.174 26.2246C100.561 26.4238 100.754 26.7402 100.754 27.1738C100.754 27.584 100.66 27.9062 100.473 28.1406ZM115.66 28.1758L110.65 27.9824H106.115C105.506 27.9824 104.996 27.8828 104.586 27.6836C104.176 27.4727 103.971 27.2148 103.971 26.9102C103.971 26.3477 104.059 25.9551 104.234 25.7324C104.656 25.8496 105.084 25.9082 105.518 25.9082C105.951 25.9082 106.314 25.8789 106.607 25.8203C106.912 25.7617 107.182 25.6387 107.416 25.4512C107.955 25.0293 108.225 24.2969 108.225 23.2539V5.3418C108.225 4.25195 107.545 3.57227 106.186 3.30273C105.342 3.12695 104.791 2.93945 104.533 2.74023C104.287 2.5293 104.164 2.30078 104.164 2.05469C104.164 1.51562 104.258 1.15234 104.445 0.964844C104.656 1.02344 104.85 1.05273 105.025 1.05273C105.025 1.05273 106.801 1.05273 110.352 1.05273C110.621 1.05273 110.979 1.04102 111.424 1.01758C111.424 1.01758 111.922 0.988281 112.918 0.929688C114.383 0.859375 115.883 0.824219 117.418 0.824219C118.965 0.824219 120.465 1.01172 121.918 1.38672C123.371 1.75 124.625 2.24805 125.68 2.88086C126.746 3.51367 127.631 4.25195 128.334 5.0957C129.049 5.92773 129.623 6.8125 130.057 7.75C130.83 9.47266 131.217 11.4062 131.217 13.5508C131.217 17.4414 130.209 20.6758 128.193 23.2539C126.611 25.2812 124.285 26.7109 121.215 27.543C119.621 27.9648 117.77 28.1758 115.66 28.1758ZM112.373 23.7637C112.373 24.6426 112.648 25.2109 113.199 25.4688C113.668 25.6797 114.787 25.7852 116.557 25.7852C118.338 25.7852 119.92 25.4922 121.303 24.9062C122.686 24.3203 123.787 23.5293 124.607 22.5332C126.084 20.7402 126.822 18.2148 126.822 14.957C126.822 9.36719 124.848 5.7168 120.898 4.00586C119.469 3.38477 117.705 3.07422 115.607 3.07422C114.213 3.07422 113.363 3.21484 113.059 3.49609C112.754 3.76562 112.561 4.10547 112.479 4.51562C112.408 4.91406 112.373 5.45312 112.373 6.13281V23.7637ZM135.91 25.416C135.91 24.5723 136.186 23.875 136.736 23.3242C137.299 22.7617 137.99 22.4805 138.811 22.4805C140.146 22.4805 141.066 23.0664 141.57 24.2383C141.723 24.6016 141.799 24.9941 141.799 25.416C141.799 26.2363 141.518 26.9336 140.955 27.5078C140.393 28.0586 139.678 28.334 138.811 28.334C137.99 28.334 137.299 28.0586 136.736 27.5078C136.186 26.9453 135.91 26.248 135.91 25.416ZM157.672 28.1758L152.662 27.9824H148.127C147.518 27.9824 147.008 27.8828 146.598 27.6836C146.188 27.4727 145.982 27.2148 145.982 26.9102C145.982 26.3477 146.07 25.9551 146.246 25.7324C146.668 25.8496 147.096 25.9082 147.529 25.9082C147.963 25.9082 148.326 25.8789 148.619 25.8203C148.924 25.7617 149.193 25.6387 149.428 25.4512C149.967 25.0293 150.236 24.2969 150.236 23.2539V5.3418C150.236 4.25195 149.557 3.57227 148.197 3.30273C147.354 3.12695 146.803 2.93945 146.545 2.74023C146.299 2.5293 146.176 2.30078 146.176 2.05469C146.176 1.51562 146.27 1.15234 146.457 0.964844C146.668 1.02344 146.861 1.05273 147.037 1.05273C147.037 1.05273 148.812 1.05273 152.363 1.05273C152.633 1.05273 152.99 1.04102 153.436 1.01758C153.436 1.01758 153.934 0.988281 154.93 0.929688C156.395 0.859375 157.895 0.824219 159.43 0.824219C160.977 0.824219 162.477 1.01172 163.93 1.38672C165.383 1.75 166.637 2.24805 167.691 2.88086C168.758 3.51367 169.643 4.25195 170.346 5.0957C171.061 5.92773 171.635 6.8125 172.068 7.75C172.842 9.47266 173.229 11.4062 173.229 13.5508C173.229 17.4414 172.221 20.6758 170.205 23.2539C168.623 25.2812 166.297 26.7109 163.227 27.543C161.633 27.9648 159.781 28.1758 157.672 28.1758ZM154.385 23.7637C154.385 24.6426 154.66 25.2109 155.211 25.4688C155.68 25.6797 156.799 25.7852 158.568 25.7852C160.35 25.7852 161.932 25.4922 163.314 24.9062C164.697 24.3203 165.799 23.5293 166.619 22.5332C168.096 20.7402 168.834 18.2148 168.834 14.957C168.834 9.36719 166.859 5.7168 162.91 4.00586C161.48 3.38477 159.717 3.07422 157.619 3.07422C156.225 3.07422 155.375 3.21484 155.07 3.49609C154.766 3.76562 154.572 4.10547 154.49 4.51562C154.42 4.91406 154.385 5.45312 154.385 6.13281V23.7637ZM196.273 20.1777C196.59 19.9082 196.924 19.7734 197.275 19.7734C197.814 19.7734 198.125 19.8496 198.207 20.002C198.664 20.916 198.893 22.4277 198.893 24.5371C198.893 26.002 198.729 27.0625 198.4 27.7188C198.295 27.9062 198.184 28 198.066 28H178.66C177.266 28 176.568 27.584 176.568 26.752C176.568 26.3066 176.662 25.9668 176.85 25.7324C177.248 25.8496 177.635 25.9082 178.01 25.9082C178.385 25.9082 178.707 25.8789 178.977 25.8203C179.246 25.7617 179.498 25.6387 179.732 25.4512C180.295 25.0176 180.576 24.2852 180.576 23.2539V5.44727C180.576 4.42773 180.166 3.77734 179.346 3.49609C179.111 3.41406 178.865 3.34375 178.607 3.28516C178.361 3.21484 178.121 3.15039 177.887 3.0918C177.664 3.02148 177.465 2.94531 177.289 2.86328C176.891 2.65234 176.691 2.36523 176.691 2.00195C176.691 1.52148 176.785 1.17578 176.973 0.964844C177.184 1.02344 177.395 1.05273 177.605 1.05273H195.588C196.666 1.05273 197.34 1.15234 197.609 1.35156C198.102 1.70312 198.348 2.47656 198.348 3.67188C198.348 4.82031 198.248 5.75781 198.049 6.48438C197.861 7.21094 197.727 7.64453 197.645 7.78516C197.527 7.99609 197.299 8.10156 196.959 8.10156C196.467 8.10156 196.127 8.04297 195.939 7.92578C195.764 7.79688 195.67 7.70312 195.658 7.64453C195.506 5.96875 195.242 4.90234 194.867 4.44531C194.492 3.97656 194.047 3.66016 193.531 3.49609C193.027 3.32031 192.365 3.23242 191.545 3.23242H187.625C186.383 3.23242 185.621 3.35547 185.34 3.60156C185.07 3.84766 184.9 4.13477 184.83 4.46289C184.76 4.7793 184.725 5.18945 184.725 5.69336V13.1816L185.762 13.1992C188.352 13.1992 190.754 12.9707 192.969 12.5137C193.133 12.5957 193.279 12.8301 193.408 13.2168C193.537 13.5918 193.602 13.9668 193.602 14.3418C193.602 14.9746 193.496 15.5254 193.285 15.9941C192.512 16.0645 191.621 16.0996 190.613 16.0996C189.605 16.0996 187.643 15.9355 184.725 15.6074V23.5352C184.725 24.4141 184.959 25.0059 185.428 25.3105C185.826 25.5684 186.541 25.6973 187.572 25.6973L190.227 25.627C192.793 25.5332 194.463 25.1758 195.236 24.5547C195.67 24.2031 195.957 23.7402 196.098 23.166C196.238 22.5918 196.309 22.0176 196.309 21.4434C196.309 20.8574 196.297 20.4355 196.273 20.1777ZM227.562 3.30273C227.316 3.18555 226.977 3.12695 226.543 3.12695C226.109 3.12695 225.781 3.2207 225.559 3.4082C225.348 3.58398 225.148 3.83594 224.961 4.16406C224.773 4.49219 224.592 4.88477 224.416 5.3418L217.156 25.0469C216.371 27.2383 215.064 28.334 213.236 28.334C212.662 28.334 212.311 28.1699 212.182 27.8418L203.516 5.78125C203.422 5.54688 203.334 5.29492 203.252 5.02539C203.17 4.74414 203.076 4.47461 202.971 4.2168C202.713 3.61914 202.355 3.25 201.898 3.10938C201.629 3.01563 201.389 2.93945 201.178 2.88086C200.979 2.81055 200.814 2.73438 200.686 2.65234C200.416 2.47656 200.281 2.25391 200.281 1.98438C200.281 1.5625 200.375 1.20508 200.562 0.912109C200.832 1.00586 201.295 1.05273 201.951 1.05273H209.229C210.014 1.05273 210.547 1.10547 210.828 1.21094C211.367 1.42188 211.637 1.82031 211.637 2.40625C211.637 2.80469 211.549 3.10352 211.373 3.30273C211.115 3.18555 210.605 3.12695 209.844 3.12695C208.461 3.12695 207.77 3.70117 207.77 4.84961C207.77 4.99023 207.811 5.19531 207.893 5.46484L208.104 6.08008C208.162 6.23242 208.215 6.36719 208.262 6.48438L214.572 23.8516L221.094 5.20117C221.164 4.94336 221.199 4.71484 221.199 4.51562C221.199 4.30469 221.152 4.12891 221.059 3.98828C220.965 3.83594 220.842 3.70703 220.689 3.60156C220.525 3.48437 220.232 3.38477 219.811 3.30273C219.389 3.20898 219.037 3.12695 218.756 3.05664C218.486 2.98633 218.258 2.89844 218.07 2.79297C217.695 2.58203 217.496 2.23047 217.473 1.73828C217.473 1.41016 217.531 1.13477 217.648 0.912109C217.918 1.00586 218.498 1.05273 219.389 1.05273H225.488C227.059 1.05273 227.844 1.50391 227.844 2.40625C227.844 2.79297 227.75 3.0918 227.562 3.30273Z" fill="black"/>
</svg>
